<svg width="192" height="192" viewBox="0 0 192 192" fill="none" xmlns="http://www.w3.org/2000/svg">
<path d="M156.373 23.2782C155.695 22.7409 154.902 22.3676 154.056 22.1875C153.21 22.0075 152.334 22.0255 151.496 22.2402L60.4958 44.9902C59.2665 45.2975 58.1751 46.0064 57.3946 47.0046C56.6141 48.0027 56.1893 49.2329 56.1875 50.5V128.774C51.4424 125.604 45.7739 124.11 40.0826 124.531C34.3914 124.951 29.0039 127.262 24.7764 131.095C20.5489 134.929 17.7239 140.065 16.7502 145.688C15.7766 151.311 16.7103 157.099 19.4028 162.13C22.0953 167.162 26.3923 171.149 31.6108 173.459C36.8293 175.769 42.6701 176.268 48.2049 174.877C53.7396 173.487 58.6509 170.286 62.1583 165.785C65.6656 161.283 67.5678 155.738 67.5625 150.031V83.3809L147.187 63.4746V106.024C142.442 102.854 136.774 101.36 131.083 101.781C125.391 102.201 120.004 104.512 115.776 108.345C111.549 112.179 108.724 117.315 107.75 122.938C106.777 128.561 107.71 134.349 110.403 139.38C113.095 144.412 117.392 148.399 122.611 150.709C127.829 153.019 133.67 153.518 139.205 152.127C144.74 150.737 149.651 147.536 153.158 143.035C156.666 138.533 158.568 132.988 158.562 127.281V27.75C158.561 26.8874 158.362 26.0365 157.983 25.2618C157.604 24.487 157.053 23.8087 156.373 23.2782Z" fill="black"/>
</svg>
