<svg width="192" height="192" viewBox="0 0 192 192" fill="none" xmlns="http://www.w3.org/2000/svg">
<path d="M164.571 39H27.4286C24.3975 39 21.4906 40.2011 19.3474 42.339C17.2041 44.4769 16 47.3765 16 50.4V141.6C16 144.623 17.2041 147.523 19.3474 149.661C21.4906 151.799 24.3975 153 27.4286 153H164.571C167.602 153 170.509 151.799 172.653 149.661C174.796 147.523 176 144.623 176 141.6V50.4C176 47.3765 174.796 44.4769 172.653 42.339C170.509 40.2011 167.602 39 164.571 39ZM164.571 50.4V67.5H27.4286V50.4H164.571ZM164.571 141.6H27.4286V78.9H164.571V141.6ZM153.143 124.5C153.143 126.012 152.541 127.462 151.469 128.531C150.398 129.599 148.944 130.2 147.429 130.2H124.571C123.056 130.2 121.602 129.599 120.531 128.531C119.459 127.462 118.857 126.012 118.857 124.5C118.857 122.988 119.459 121.538 120.531 120.469C121.602 119.401 123.056 118.8 124.571 118.8H147.429C148.944 118.8 150.398 119.401 151.469 120.469C152.541 121.538 153.143 122.988 153.143 124.5ZM107.429 124.5C107.429 126.012 106.827 127.462 105.755 128.531C104.683 129.599 103.23 130.2 101.714 130.2H90.2857C88.7702 130.2 87.3167 129.599 86.2451 128.531C85.1735 127.462 84.5714 126.012 84.5714 124.5C84.5714 122.988 85.1735 121.538 86.2451 120.469C87.3167 119.401 88.7702 118.8 90.2857 118.8H101.714C103.23 118.8 104.683 119.401 105.755 120.469C106.827 121.538 107.429 122.988 107.429 124.5Z" fill="black"/>
</svg>
