<svg width="192" height="192" viewBox="0 0 192 192" fill="none" xmlns="http://www.w3.org/2000/svg">
<path d="M168.839 164.288C152.963 156.531 143.856 139.903 143.856 118.593V106.408C143.862 104.147 143.188 101.937 141.921 100.066C140.654 98.1957 138.854 96.7513 136.756 95.9216L119.226 88.9686C117.847 88.4158 116.741 87.3392 116.151 85.9735C115.56 84.6077 115.532 83.0634 116.073 81.6771L131.077 44.3028C132.095 41.8498 132.609 39.2161 132.587 36.5594C132.565 33.9027 132.009 31.2777 130.951 28.8416C129.893 26.4055 128.356 24.2083 126.43 22.3818C124.505 20.5552 122.232 19.1367 119.747 18.2113C114.906 16.434 109.564 16.6184 104.857 18.7253C100.15 20.8322 96.4484 24.6955 94.539 29.4941C94.5362 29.5223 94.5362 29.5506 94.539 29.5788L79.7467 67.1082C79.1965 68.4966 78.1192 69.6097 76.7511 70.2033C75.3831 70.7968 73.8359 70.8224 72.449 70.2744L54.5602 62.9758C52.4977 62.1384 50.2327 61.9366 48.0551 62.3964C45.8776 62.8562 43.8864 63.9566 42.3365 65.5568C27.516 80.8238 20.0001 98.6647 20.0001 118.586C19.9612 138.972 27.8289 158.575 41.9424 173.258C42.4712 173.812 43.1071 174.252 43.8112 174.552C44.5154 174.851 45.2731 175.004 46.0381 175H166.376C167.648 174.999 168.883 174.566 169.878 173.771C170.873 172.977 171.571 171.868 171.856 170.625C172.142 169.383 171.999 168.08 171.451 166.929C170.903 165.778 169.982 164.847 168.839 164.288ZM50.359 73.4547L68.2407 80.718C70.3048 81.5455 72.5116 81.9565 74.7346 81.9274C76.9576 81.8983 79.1529 81.4298 81.1948 80.5486C83.2366 79.6674 85.0848 78.3909 86.6332 76.7924C88.1816 75.1939 89.3999 73.3048 90.2181 71.2334L104.996 33.8592C106.798 29.5505 111.661 27.3222 115.855 28.9229C116.924 29.3205 117.902 29.931 118.73 30.7176C119.557 31.5042 120.217 32.4505 120.669 33.4996C121.122 34.5487 121.357 35.6788 121.362 36.8217C121.367 37.9645 121.14 39.0965 120.697 40.1493L105.637 77.5165C103.988 81.6847 104.057 86.3381 105.829 90.4552C107.601 94.5723 110.931 97.8165 115.088 99.4757L132.597 106.408V118.586C132.597 118.819 132.597 119.051 132.597 119.291L42.3576 83.1227C44.7566 79.6864 47.4327 76.4529 50.359 73.4547ZM84.1379 163.717C75.7559 155.66 69.818 145.393 67.0092 134.1C66.6177 132.671 65.6814 131.455 64.4023 130.712C63.1232 129.97 61.604 129.761 60.1727 130.131C58.7415 130.502 57.513 131.421 56.7526 132.692C55.9921 133.962 55.7608 135.481 56.1084 136.92C58.564 146.636 62.9593 155.752 69.0289 163.717H48.4589C37.3554 151.321 31.2281 135.243 31.2598 118.586C31.1909 109.76 33.0475 101.026 36.6996 92.9951L133.673 131.864C135.785 144.558 141.105 155.474 149.078 163.71L84.1379 163.717Z" fill="black"/>
</svg>
