<svg width="192" height="192" viewBox="0 0 192 192" fill="none" xmlns="http://www.w3.org/2000/svg">
<path d="M174.199 165.5L135.725 127.034C146.876 113.647 152.437 96.475 151.25 79.0919C150.063 61.7088 142.22 45.4524 129.353 33.7045C116.486 21.9565 99.5844 15.6216 82.1653 16.0175C64.7462 16.4134 48.1503 23.5096 35.8299 35.8299C23.5096 48.1503 16.4134 64.7462 16.0175 82.1653C15.6216 99.5844 21.9565 116.486 33.7045 129.353C45.4524 142.22 61.7088 150.063 79.0919 151.25C96.475 152.437 113.647 146.876 127.034 135.725L165.5 174.199C166.071 174.77 166.749 175.223 167.496 175.532C168.242 175.841 169.042 176 169.849 176C170.657 176 171.457 175.841 172.203 175.532C172.949 175.223 173.627 174.77 174.199 174.199C174.77 173.627 175.223 172.949 175.532 172.203C175.841 171.457 176 170.657 176 169.849C176 169.042 175.841 168.242 175.532 167.496C175.223 166.749 174.77 166.071 174.199 165.5ZM28.4642 83.7888C28.4642 72.8467 31.7089 62.1502 37.7881 53.0521C43.8672 43.954 52.5078 36.8629 62.617 32.6755C72.7263 28.4882 83.8502 27.3925 94.5821 29.5273C105.314 31.662 115.172 36.9311 122.909 44.6684C130.647 52.4057 135.916 62.2636 138.05 72.9955C140.185 83.7275 139.09 94.8514 134.902 104.961C130.715 115.07 123.624 123.71 114.526 129.79C105.427 135.869 94.731 139.113 83.7888 139.113C69.1208 139.097 55.0582 133.263 44.6864 122.891C34.3145 112.519 28.4805 98.4569 28.4642 83.7888Z" fill="black"/>
</svg>
