<svg width="192" height="192" viewBox="0 0 192 192" fill="none" xmlns="http://www.w3.org/2000/svg">
<path d="M160.167 16H31.8333C28.4297 16 25.1655 17.3487 22.7588 19.7494C20.3521 22.1501 19 25.4061 19 28.8012V75.8214C19 147.524 79.814 171.302 91.9896 175.334C94.5892 176.222 97.4108 176.222 100.01 175.334C112.202 171.294 173 147.516 173 75.8134V28.8012C173 25.4061 171.648 22.1501 169.241 19.7494C166.834 17.3487 163.57 16 160.167 16ZM32.3627 86.4063H96V28.8012H160.167V75.8214C160.169 79.351 159.993 82.8785 159.637 86.3903H96V163.197C85.7815 159.797 37.9211 141.019 32.3627 86.4063Z" fill="black"/>
</svg>
