<svg width="192" height="192" viewBox="0 0 192 192" fill="none" xmlns="http://www.w3.org/2000/svg">
<path d="M174.535 99.5527L159.535 114.548C159.071 115.013 158.52 115.382 157.913 115.633C157.306 115.885 156.655 116.014 155.998 116.014C155.341 116.014 154.69 115.885 154.083 115.633C153.476 115.382 152.925 115.013 152.461 114.548L137.461 99.5527C136.523 98.6147 135.996 97.3426 135.996 96.0162C135.996 94.6898 136.523 93.4176 137.461 92.4797C138.399 91.5418 139.672 91.0149 140.998 91.0149C142.325 91.0149 143.598 91.5418 144.536 92.4797L150.998 98.9466V96.0162C151.004 84.3735 147.313 73.0295 140.457 63.6184C133.601 54.2072 123.933 47.2148 112.847 43.6483C101.762 40.0818 89.8296 40.1254 78.7702 43.7729C67.7108 47.4203 58.0949 54.4832 51.3078 63.9442C50.5337 65.0213 49.3634 65.7469 48.0542 65.9614C46.745 66.1758 45.4042 65.8615 44.3268 65.0876C43.2494 64.3138 42.5236 63.1437 42.3091 61.8348C42.0946 60.526 42.409 59.1855 43.1831 58.1084C51.2046 46.9274 62.5692 38.5806 75.6396 34.2704C88.71 29.9602 102.812 29.9092 115.913 34.1247C129.014 38.3401 140.439 46.6044 148.541 57.7271C156.644 68.8498 161.005 82.2566 160.998 96.0162V98.9466L167.46 92.4797C168.398 91.5418 169.671 91.0149 170.997 91.0149C172.324 91.0149 173.597 91.5418 174.535 92.4797C175.473 93.4177 176 94.6898 176 96.0162C176 97.3426 175.473 98.6147 174.535 99.5527ZM148.798 133.918C140.774 145.09 129.411 153.429 116.345 157.735C103.279 162.04 89.1832 162.089 76.0871 157.875C62.9911 153.662 51.5701 145.402 43.4683 134.286C35.3665 123.17 31.0017 109.77 31.0023 96.0162V93.0858L24.54 99.5527C23.6018 100.491 22.3294 101.018 21.0026 101.018C19.6758 101.018 18.4034 100.491 17.4652 99.5527C16.5271 98.6147 16 97.3426 16 96.0162C16 94.6898 16.5271 93.4176 17.4652 92.4797L32.4647 77.4841C32.9291 77.0193 33.4805 76.6506 34.0874 76.3991C34.6944 76.1475 35.345 76.018 36.0021 76.018C36.6591 76.018 37.3097 76.1475 37.9167 76.3991C38.5237 76.6506 39.0751 77.0193 39.5395 77.4841L54.5389 92.4797C55.4771 93.4176 56.0042 94.6898 56.0042 96.0162C56.0042 97.3426 55.4771 98.6147 54.5389 99.5527C53.6008 100.491 52.3283 101.018 51.0016 101.018C49.6748 101.018 48.4024 100.491 47.4642 99.5527L41.0019 93.0858V96.0162C40.9901 109.476 45.9383 122.468 54.9014 132.512C60.4777 124.433 68.3186 118.184 77.4381 114.548C72.5395 110.691 68.9649 105.403 67.2114 99.4208C65.458 93.4382 65.6129 87.0581 67.6546 81.1677C69.6964 75.2772 73.5234 70.1692 78.6035 66.554C83.6836 62.9389 89.7643 60.9962 96 60.9962C102.236 60.9962 108.316 62.9389 113.397 66.554C118.477 70.1692 122.304 75.2772 124.345 81.1677C126.387 87.0581 126.542 93.4382 124.789 99.4208C123.035 105.403 119.461 110.691 114.562 114.548C123.69 118.184 131.536 124.442 137.111 132.531C138.375 131.111 139.566 129.629 140.68 128.088C141.454 127.011 142.624 126.285 143.933 126.071C145.243 125.857 146.583 126.171 147.661 126.945C148.738 127.719 149.464 128.889 149.678 130.198C149.893 131.506 149.578 132.847 148.804 133.924L148.798 133.918ZM96 111.012C99.9555 111.012 103.822 109.839 107.111 107.642C110.4 105.445 112.963 102.323 114.477 98.6691C115.991 95.0156 116.387 90.9955 115.615 87.117C114.843 83.2385 112.939 79.6758 110.142 76.8796C107.345 74.0834 103.781 72.1791 99.9017 71.4076C96.0222 70.6361 92.001 71.0321 88.3466 72.5454C84.6922 74.0587 81.5687 76.6214 79.3712 79.9095C77.1736 83.1975 76.0007 87.0632 76.0007 91.0176C76.0007 96.3204 78.1078 101.406 81.8584 105.156C85.6089 108.905 90.6959 111.012 96 111.012ZM96 151C108.202 150.984 120.055 146.921 129.699 139.447C126.082 133.792 121.099 129.138 115.21 125.914C109.321 122.69 102.714 121.001 96 121.001C89.2857 121.001 82.6794 122.69 76.7902 125.914C70.9009 129.138 65.9181 133.792 62.3012 139.447C71.931 146.948 83.7926 151.014 96 151Z" fill="black"/>
</svg>
