<svg width="192" height="192" viewBox="0 0 192 192" fill="none" xmlns="http://www.w3.org/2000/svg">
<path d="M175.996 45.4169C175.95 41.4048 175.096 37.443 173.484 33.7688C171.872 30.0946 169.536 26.7835 166.614 24.0337C154.95 12.967 136.02 13.3837 124.439 24.9753L108.343 41.1669C104.541 37.7015 99.5506 35.8345 94.4085 35.954C89.2663 36.0735 84.3679 38.1703 80.7315 41.8086L73.233 49.3086C71.9935 50.5469 71.0103 52.0174 70.3394 53.636C69.6685 55.2547 69.3232 56.9897 69.3232 58.7419C69.3232 60.4941 69.6685 62.2291 70.3394 63.8478C71.0103 65.4664 71.9935 66.9369 73.233 68.1752L74.8993 69.8919L32.4078 112.392C28.3178 116.451 25.3572 121.507 23.8186 127.06C22.28 132.614 22.2165 138.473 23.6345 144.058L16.9692 159.4C16.0396 161.508 15.7705 163.849 16.1974 166.113C16.6243 168.377 17.727 170.459 19.3604 172.083C21.2497 173.986 23.671 175.27 26.3051 175.769C28.9391 176.267 31.6623 175.956 34.1158 174.875L48.7129 168.5C54.197 169.741 59.9063 169.57 65.3065 168.004C70.7067 166.437 75.6212 163.525 79.59 159.542L122.082 117.042L123.798 118.758C126.298 121.257 129.687 122.661 133.221 122.661C136.755 122.661 140.144 121.257 142.644 118.758L150.143 111.258C153.786 107.616 155.884 102.708 155.999 97.5573C156.114 92.4061 154.237 87.4094 150.759 83.6085L167.214 67.0502C170.059 64.2215 172.303 60.8473 173.812 57.1299C175.321 53.4125 176.064 49.4285 175.996 45.4169ZM70.1836 150.167C67.6186 152.738 64.4021 154.561 60.8793 155.442C57.3565 156.323 53.6604 156.228 50.1876 155.167C48.6649 154.697 47.0244 154.789 45.5635 155.425L30.4832 162.017L36.8569 147.175C37.5182 145.659 37.5925 143.951 37.0652 142.383C35.8573 138.853 35.666 135.055 36.5131 131.421C37.3602 127.787 39.2116 124.465 41.8559 121.833L84.3474 79.3335L112.625 107.667L70.1836 150.167ZM157.774 57.6669L136.637 78.9335C135.39 80.1833 134.69 81.8765 134.69 83.6418C134.69 85.4072 135.39 87.1004 136.637 88.3502L140.711 92.4252C141.331 93.0443 141.822 93.7796 142.158 94.5889C142.493 95.3982 142.666 96.2657 142.666 97.1418C142.666 98.0179 142.493 98.8854 142.158 99.6947C141.822 100.504 141.331 101.239 140.711 101.858L133.213 109.358L82.6811 58.7169L90.1796 51.2169C91.4294 49.9676 93.1241 49.2659 94.8911 49.2659C96.6581 49.2659 98.3528 49.9676 99.6027 51.2169L103.677 55.2919C104.296 55.913 105.032 56.4058 105.842 56.742C106.652 57.0783 107.52 57.2513 108.397 57.2513C109.274 57.2513 110.142 57.0783 110.952 56.742C111.762 56.4058 112.497 55.913 113.117 55.2919L133.896 34.3836C140.403 27.867 150.976 27.567 157.466 33.7086C159.087 35.2403 160.385 37.0818 161.281 39.1241C162.178 41.1664 162.655 43.3679 162.686 45.5982C162.716 47.8285 162.298 50.0422 161.458 52.1081C160.617 54.174 159.37 56.0501 157.791 57.6252L157.774 57.6669Z" fill="black"/>
</svg>
