<svg width="192" height="192" viewBox="0 0 192 192" fill="none" xmlns="http://www.w3.org/2000/svg">
<path d="M40.875 96C40.875 98.4228 40.1565 100.791 38.8105 102.806C37.4645 104.82 35.5513 106.39 33.3129 107.318C31.0745 108.245 28.6114 108.487 26.2351 108.015C23.8589 107.542 21.6761 106.375 19.9629 104.662C18.2497 102.949 17.083 100.766 16.6104 98.3899C16.1377 96.0136 16.3803 93.5505 17.3075 91.3121C18.2346 89.0737 19.8048 87.1605 21.8193 85.8145C23.8338 84.4685 26.2022 83.75 28.625 83.75C31.8739 83.75 34.9897 85.0406 37.2871 87.3379C39.5844 89.6353 40.875 92.7511 40.875 96ZM28.625 34.75C26.2022 34.75 23.8338 35.4685 21.8193 36.8145C19.8048 38.1605 18.2346 40.0737 17.3075 42.3121C16.3803 44.5505 16.1377 47.0136 16.6104 49.3899C17.083 51.7661 18.2497 53.9489 19.9629 55.6621C21.6761 57.3752 23.8589 58.542 26.2351 59.0146C28.6114 59.4873 31.0745 59.2447 33.3129 58.3175C35.5513 57.3904 37.4645 55.8202 38.8105 53.8057C40.1565 51.7912 40.875 49.4228 40.875 47C40.875 43.7511 39.5844 40.6353 37.2871 38.3379C34.9897 36.0406 31.8739 34.75 28.625 34.75ZM28.625 132.75C26.2022 132.75 23.8338 133.468 21.8193 134.814C19.8048 136.161 18.2346 138.074 17.3075 140.312C16.3803 142.551 16.1377 145.014 16.6104 147.39C17.083 149.766 18.2497 151.949 19.9629 153.662C21.6761 155.375 23.8589 156.542 26.2351 157.015C28.6114 157.487 31.0745 157.245 33.3129 156.318C35.5513 155.39 37.4645 153.82 38.8105 151.806C40.1565 149.791 40.875 147.423 40.875 145C40.875 141.751 39.5844 138.635 37.2871 136.338C34.9897 134.041 31.8739 132.75 28.625 132.75ZM163.375 83.75H65.375C63.7505 83.75 62.1926 84.3953 61.044 85.544C59.8953 86.6926 59.25 88.2505 59.25 89.875V102.125C59.25 103.749 59.8953 105.307 61.044 106.456C62.1926 107.605 63.7505 108.25 65.375 108.25H163.375C164.999 108.25 166.557 107.605 167.706 106.456C168.855 105.307 169.5 103.749 169.5 102.125V89.875C169.5 88.2505 168.855 86.6926 167.706 85.544C166.557 84.3953 164.999 83.75 163.375 83.75ZM163.375 34.75H65.375C63.7505 34.75 62.1926 35.3953 61.044 36.544C59.8953 37.6926 59.25 39.2505 59.25 40.875V53.125C59.25 54.7495 59.8953 56.3074 61.044 57.456C62.1926 58.6047 63.7505 59.25 65.375 59.25H163.375C164.999 59.25 166.557 58.6047 167.706 57.456C168.855 56.3074 169.5 54.7495 169.5 53.125V40.875C169.5 39.2505 168.855 37.6926 167.706 36.544C166.557 35.3953 164.999 34.75 163.375 34.75ZM163.375 132.75H65.375C63.7505 132.75 62.1926 133.395 61.044 134.544C59.8953 135.693 59.25 137.251 59.25 138.875V151.125C59.25 152.749 59.8953 154.307 61.044 155.456C62.1926 156.605 63.7505 157.25 65.375 157.25H163.375C164.999 157.25 166.557 156.605 167.706 155.456C168.855 154.307 169.5 152.749 169.5 151.125V138.875C169.5 137.251 168.855 135.693 167.706 134.544C166.557 133.395 164.999 132.75 163.375 132.75Z" fill="black"/>
</svg>
