<svg width="192" height="192" viewBox="0 0 192 192" fill="none" xmlns="http://www.w3.org/2000/svg">
<path d="M84.1667 51.6549C84.1667 53.2231 83.5433 54.7271 82.4337 55.8359C81.3241 56.9448 79.8192 57.5678 78.25 57.5678H30.9167C29.3475 57.5678 27.8425 56.9448 26.733 55.8359C25.6234 54.7271 25 53.2231 25 51.6549C25 50.0867 25.6234 48.5827 26.733 47.4738C27.8425 46.365 29.3475 45.742 30.9167 45.742H78.25C79.8192 45.742 81.3241 46.365 82.4337 47.4738C83.5433 48.5827 84.1667 50.0867 84.1667 51.6549ZM78.25 128.523H60.5V110.784C60.5 109.216 59.8766 107.712 58.767 106.603C57.6575 105.494 56.1525 104.871 54.5833 104.871C53.0141 104.871 51.5092 105.494 50.3996 106.603C49.29 107.712 48.6667 109.216 48.6667 110.784V128.523H30.9167C29.3475 128.523 27.8425 129.146 26.733 130.254C25.6234 131.363 25 132.867 25 134.436C25 136.004 25.6234 137.508 26.733 138.617C27.8425 139.725 29.3475 140.348 30.9167 140.348H48.6667V158.087C48.6667 159.655 49.29 161.159 50.3996 162.268C51.5092 163.377 53.0141 164 54.5833 164C56.1525 164 57.6575 163.377 58.767 162.268C59.8766 161.159 60.5 159.655 60.5 158.087V140.348H78.25C79.8192 140.348 81.3241 139.725 82.4337 138.617C83.5433 137.508 84.1667 136.004 84.1667 134.436C84.1667 132.867 83.5433 131.363 82.4337 130.254C81.3241 129.146 79.8192 128.523 78.25 128.523ZM113.75 128.523H161.083C162.653 128.523 164.157 127.9 165.267 126.791C166.377 125.682 167 124.178 167 122.61C167 121.042 166.377 119.538 165.267 118.429C164.157 117.32 162.653 116.697 161.083 116.697H113.75C112.181 116.697 110.676 117.32 109.566 118.429C108.457 119.538 107.833 121.042 107.833 122.61C107.833 124.178 108.457 125.682 109.566 126.791C110.676 127.9 112.181 128.523 113.75 128.523ZM161.083 140.348H113.75C112.181 140.348 110.676 140.971 109.566 142.08C108.457 143.189 107.833 144.693 107.833 146.261C107.833 147.83 108.457 149.333 109.566 150.442C110.676 151.551 112.181 152.174 113.75 152.174H161.083C162.653 152.174 164.157 151.551 165.267 150.442C166.377 149.333 167 147.83 167 146.261C167 144.693 166.377 143.189 165.267 142.08C164.157 140.971 162.653 140.348 161.083 140.348ZM115.481 73.577C116.03 74.1267 116.683 74.5629 117.401 74.8604C118.119 75.158 118.889 75.3111 119.667 75.3111C120.444 75.3111 121.214 75.158 121.932 74.8604C122.651 74.5629 123.303 74.1267 123.853 73.577L137.417 60.0143L150.981 73.577C151.53 74.1263 152.183 74.5621 152.901 74.8594C153.619 75.1568 154.389 75.3098 155.167 75.3098C155.944 75.3098 156.714 75.1568 157.432 74.8594C158.15 74.5621 158.803 74.1263 159.353 73.577C159.902 73.0276 160.338 72.3754 160.636 71.6576C160.933 70.9398 161.087 70.1705 161.087 69.3936C161.087 68.6167 160.933 67.8473 160.636 67.1296C160.338 66.4118 159.902 65.7596 159.353 65.2102L145.781 51.6549L159.353 38.0996C160.463 36.9901 161.087 35.4853 161.087 33.9162C161.087 32.3471 160.463 30.8423 159.353 29.7328C158.243 28.6233 156.737 28 155.167 28C153.597 28 152.091 28.6233 150.981 29.7328L137.417 43.2955L123.853 29.7328C122.743 28.6233 121.237 28 119.667 28C118.097 28 116.591 28.6233 115.481 29.7328C114.37 30.8423 113.747 32.3471 113.747 33.9162C113.747 35.4853 114.37 36.9901 115.481 38.0996L129.052 51.6549L115.481 65.2102C114.931 65.7594 114.494 66.4115 114.196 67.1293C113.899 67.8471 113.745 68.6165 113.745 69.3936C113.745 70.1706 113.899 70.9401 114.196 71.6579C114.494 72.3757 114.931 73.0278 115.481 73.577Z" fill="black"/>
</svg>
