<svg width="192" height="192" viewBox="0 0 192 192" fill="none" xmlns="http://www.w3.org/2000/svg">
<path d="M147 124.214C146.991 133.191 143.405 141.797 137.031 148.145C130.657 154.492 122.014 158.062 113 158.071H101.667V169.357C101.667 170.854 101.07 172.289 100.007 173.347C98.9442 174.405 97.5029 175 96 175C94.4971 175 93.0558 174.405 91.9931 173.347C90.9304 172.289 90.3333 170.854 90.3333 169.357V158.071H79C69.9855 158.062 61.3429 154.492 54.9687 148.145C48.5945 141.797 45.0094 133.191 45 124.214C45 122.718 45.597 121.282 46.6597 120.224C47.7224 119.166 49.1638 118.571 50.6667 118.571C52.1696 118.571 53.6109 119.166 54.6736 120.224C55.7363 121.282 56.3333 122.718 56.3333 124.214C56.3333 130.201 58.7214 135.942 62.9722 140.175C67.2231 144.408 72.9884 146.786 79 146.786H113C119.012 146.786 124.777 144.408 129.028 140.175C133.279 135.942 135.667 130.201 135.667 124.214C135.667 118.228 133.279 112.487 129.028 108.254C124.777 104.021 119.012 101.643 113 101.643H84.6667C75.6493 101.643 67.0013 98.0758 60.625 91.7263C54.2488 85.3769 50.6667 76.7652 50.6667 67.7857C50.6667 58.8062 54.2488 50.1945 60.625 43.8451C67.0013 37.4957 75.6493 33.9286 84.6667 33.9286H90.3333V22.6429C90.3333 21.1463 90.9304 19.711 91.9931 18.6528C93.0558 17.5945 94.4971 17 96 17C97.5029 17 98.9442 17.5945 100.007 18.6528C101.07 19.711 101.667 21.1463 101.667 22.6429V33.9286H107.333C116.348 33.9379 124.99 37.508 131.365 43.8554C137.739 50.2028 141.324 58.8091 141.333 67.7857C141.333 69.2823 140.736 70.7176 139.674 71.7758C138.611 72.8341 137.17 73.4286 135.667 73.4286C134.164 73.4286 132.722 72.8341 131.66 71.7758C130.597 70.7176 130 69.2823 130 67.7857C130 61.7994 127.612 56.0583 123.361 51.8253C119.11 47.5923 113.345 45.2143 107.333 45.2143H84.6667C78.6551 45.2143 72.8897 47.5923 68.6389 51.8253C64.3881 56.0583 62 61.7994 62 67.7857C62 73.772 64.3881 79.5132 68.6389 83.7461C72.8897 87.9791 78.6551 90.3571 84.6667 90.3571H113C122.014 90.3665 130.657 93.9366 137.031 100.284C143.405 106.631 146.991 115.238 147 124.214Z" fill="black"/>
</svg>
