<svg width="192" height="192" viewBox="0 0 192 192" fill="none" xmlns="http://www.w3.org/2000/svg">
<path d="M146.556 45.0909V30.5455H53.2572L101.644 91.4545C102.67 92.7445 103.229 94.3476 103.229 96C103.229 97.6524 102.67 99.2555 101.644 100.545L53.2572 161.455H146.556V146.909C146.556 144.98 147.317 143.13 148.671 141.766C150.026 140.403 151.863 139.636 153.778 139.636C155.693 139.636 157.53 140.403 158.885 141.766C160.239 143.13 161 144.98 161 146.909V168.727C161 170.656 160.239 172.506 158.885 173.87C157.53 175.234 155.693 176 153.778 176H38.2265C36.8655 176.001 35.532 175.614 34.3796 174.885C33.2272 174.156 32.3029 173.114 31.7132 171.879C31.1234 170.643 30.8923 169.265 31.0465 167.904C31.2006 166.542 31.7337 165.252 32.5843 164.182L86.7491 96L32.5843 27.8182C31.7337 26.7483 31.2006 25.4581 31.0465 24.0964C30.8923 22.7346 31.1234 21.3567 31.7132 20.1215C32.3029 18.8863 33.2272 17.844 34.3796 17.1148C35.532 16.3856 36.8655 15.9991 38.2265 16H153.778C155.693 16 157.53 16.7662 158.885 18.1301C160.239 19.494 161 21.3439 161 23.2727V45.0909C161 47.0198 160.239 48.8696 158.885 50.2335C157.53 51.5974 155.693 52.3636 153.778 52.3636C151.863 52.3636 150.026 51.5974 148.671 50.2335C147.317 48.8696 146.556 47.0198 146.556 45.0909Z" fill="black"/>
</svg>
